999
FreeCAD v0.19 24276 (Git)
  0
SECTION
  2
HEADER
  9
$ACADVER
  1
AC1014
  9
$ACADMAINTVER
 70
     9
  9
$DWGCODEPAGE
  3
ANSI_1252
  9
$TEXTSTYLE
  7
STANDARD
  9
$DIMSTYLE
  2
STANDARD
  9
$DIMTXSTY
  7
STANDARD
  9
$CMLSTYLE
  2
STANDARD
  9
$PEXTMAX
 10
50
 20
50
 30
50
  9
$PEXTMIN
 10
0
 20
0
 30
0
  9
$HANDSEED
  5
FFFF
  0
ENDSEC
  0
SECTION
  2
CLASSES
  0
CLASS
  1
ACDBDICTIONARYWDFLT
  2
AcDbDictionaryWithDefault
  3
ObjectDBX Classes
 90
        0
280
     0
281
     0
  0
CLASS
  1
XRECORD
  2
AcDbXrecord
  3
ObjectDBX Classes
 90
        0
280
     0
281
     0
  0
CLASS
  1
LWPOLYLINE
  2
AcDbPolyline
  3
ObjectDBX Classes
 90
        0
280
     0
281
     1
  0
ENDSEC
  0
SECTION
  2
TABLES
  0
TABLE
  2
VPORT
  5
20
330
0
100
AcDbSymbolTable
 70
     1
  0
VPORT
  5
21
330
20
100
AcDbSymbolTableRecord
100
AcDbViewportTableRecord
  2
*ACTIVE
 70
     0
  0
ENDTAB
  0
TABLE
  2
LTYPE
  5
22
330
0
100
AcDbSymbolTable
 70
     1
  0
LTYPE
  5
23
330
21
100
AcDbSymbolTableRecord
100
AcDbLinetypeTableRecord
  2
BYBLOCK
 70
     0
  3

 72
    65
 73
     0
 40
0.0
  0
LTYPE
  5
24
330
21
100
AcDbSymbolTableRecord
100
AcDbLinetypeTableRecord
  2
BYLAYER
 70
     0
  3

 72
    65
 73
     0
 40
0.0
  0
LTYPE
  5
25
330
21
100
AcDbSymbolTableRecord
100
AcDbLinetypeTableRecord
  2
CONTINUOUS
 70
     0
  3
Solid line
 72
    65
 73
     0
 40
0.0
  0
ENDTAB
  0
TABLE
  2
LAYER
  5
A21
330
0
100
AcDbSymbolTable
 70
3
  0
LAYER
  5
A22
330
A21
100
AcDbSymbolTableRecord
100
AcDbLayerTableRecord
  2
0
 70
   0
 62
   7
  6
CONTINUOUS
  0
LAYER
  5
A23
330
A21
100
AcDbSymbolTableRecord
100
AcDbLayerTableRecord
  2
none
 70
    0
 62
    7
  6
CONTINUOUS
  0
LAYER
  5
A24
330
A21
100
AcDbSymbolTableRecord
100
AcDbLayerTableRecord
  2
Shape2DView
 70
    0
 62
    7
  6
CONTINUOUS
  0
ENDTAB
  0
TABLE
  2
STYLE
  5
70
330
0
100
AcDbSymbolTable
 70
     2
  0
STYLE
  5
71
330
70
100
AcDbSymbolTableRecord
100
AcDbTextStyleTableRecord
  2
STANDARD
 70
     0
 40
0.0
 41
1.0
 50
0.0
 71
     0
 42
2.5
  3
arial.ttf
  4

  0
STYLE
  5
72
330
70
100
AcDbSymbolTableRecord
100
AcDbTextStyleTableRecord
  2
ANNOTATIVE
 70
     0
 40
0.0
 41
1.0
 50
0.0
 71
     0
 42
2.5
  3
arial.ttf
  4

  0
ENDTAB
  0
TABLE
  2
VIEW
  5
73
330
0
100
AcDbSymbolTable
 70
     0
  0
ENDTAB
  0
TABLE
  2
UCS
  5
74
330
0
100
AcDbSymbolTable
 70
     0
  0
ENDTAB
  0
TABLE
  2
APPID
  5
75
330
0
100
AcDbSymbolTable
 70
     2
  0
APPID
  5
76
330
75
100
AcDbSymbolTableRecord
100
AcDbRegAppTableRecord
  2
ACAD
 70
     0
  0
APPID
  5
77
330
75
100
AcDbSymbolTableRecord
100
AcDbRegAppTableRecord
  2
ACADANNOTATIVE
 70
     0
  0
ENDTAB
  0
TABLE
  2
DIMSTYLE
  5
78
330
0
100
AcDbSymbolTable
 70
     2
  0
DIMSTYLE
105
79
330
78
100
AcDbSymbolTableRecord
100
AcDbDimStyleTableRecord
  2
STANDARD
 70
     0
  3

  4

  5

  6

  7

 40
0.0
 41
2.5
 42
0.625
 43
3.75
 44
1.25
 45
0.0
 46
0.0
 47
0.0
 48
0.0
140
2.5
141
2.5
142
0.0
143
0.03937007874016
144
1.0
145
0.0
146
1.0
147
0.625
 71
     0
 72
     0
 73
     0
 74
     0
 75
     0
 76
     0
 77
     1
 78
     8
170
     0
171
     3
172
     1
173
     0
174
     0
175
     0
176
     0
177
     0
178
     0
270
     2
271
     2
272
     2
273
     2
274
     3
340
71
275
     0
280
     0
281
     0
282
     0
283
     0
284
     8
285
     0
286
     0
287
     3
288
     0
  0
ENDTAB
  0
TABLE
  2
BLOCK_RECORD
  5
A01
330
0
100
AcDbSymbolTable
  70
5
  0
BLOCK_RECORD
  5
A02
330
A01
100
AcDbSymbolTableRecord
100
AcDbBlockTableRecord
  2
*MODEL_SPACE
  0
BLOCK_RECORD
  5
A03
330
A01
100
AcDbSymbolTableRecord
100
AcDbBlockTableRecord
  2
*PAPER_SPACE
  0
ENDTAB
  0
ENDSEC
  0
SECTION
  2
BLOCKS
  0
BLOCK
  5
A04
330
A02
100
AcDbEntity
  8
0
100
AcDbBlockBegin
  2
*MODEL_SPACE
 70
   0
 10
0
 20
0
 30
0
  3
*MODEL_SPACE
  1
 
  0
ENDBLK
  5
A05
330
A02
100
AcDbEntity
  8
0
100
AcDbBlockEnd
  0
BLOCK
  5
A06
330
A03
100
AcDbEntity
 67
1
  8
0
100
AcDbBlockBegin
  2
*PAPER_SPACE
 70
   0
 10
0
 20
0
 30
0
  3
*PAPER_SPACE
  1
 
  0
ENDBLK
  5
A07
330
A03
100
AcDbEntity
 67
    1
  8
0
100
AcDbBlockEnd
  0
ENDSEC
  0
SECTION
  2
ENTITIES
  0
LINE
  5
A08
330
A02
100
AcDbEntity
  8
Shape2DView
100
AcDbLine
 10
-78.9
 20
76
 30
0
 11
78.9
 21
76
 31
0
  0
LINE
  5
A09
330
A02
100
AcDbEntity
  8
Shape2DView
100
AcDbLine
 10
-78.9
 20
-38
 30
0
 11
-78.9
 21
76
 31
0
  0
LINE
  5
A0A
330
A02
100
AcDbEntity
  8
Shape2DView
100
AcDbLine
 10
78.9
 20
76
 30
0
 11
78.9
 21
-38
 31
0
  0
SPLINE
  5
A0B
330
A02
100
AcDbEntity
  8
Shape2DView
100
AcDbSpline
210
0
220
0
230
1
 70
8
 71
3
 72
11
 73
7
 74
0
 40
0.828519
 40
0.828519
 40
0.828519
 40
0.828519
 40
0.919194
 40
0.919194
 40
0.919194
 40
1
 40
1
 40
1
 40
1
 10
24.2998
 20
-0.843636
 30
0
 10
25.089
 20
-1.28884
 30
0
 10
25.7475
 20
-1.96121
 30
0
 10
26.176
 20
-2.75667
 30
0
 10
26.5599
 20
-3.46439
 30
0
 10
26.761
 20
-4.26706
 30
0
 10
26.76
 20
-5.064
 30
0
  0
SPLINE
  5
A0C
330
A02
100
AcDbEntity
  8
Shape2DView
100
AcDbSpline
210
0
220
0
230
1
 70
8
 71
3
 72
11
 73
7
 74
0
 40
0.828519
 40
0.828519
 40
0.828519
 40
0.828519
 40
0.919194
 40
0.919194
 40
0.919194
 40
1
 40
1
 40
1
 40
1
 10
2.43369
 20
-0.843637
 30
0
 10
3.2229
 20
-1.28884
 30
0
 10
3.88136
 20
-1.96121
 30
0
 10
4.3099
 20
-2.75667
 30
0
 10
4.6938
 20
-3.46439
 30
0
 10
4.89492
 20
-4.26706
 30
0
 10
4.8939
 20
-5.064
 30
0
  0
SPLINE
  5
A0D
330
A02
100
AcDbEntity
  8
Shape2DView
100
AcDbSpline
210
0
220
0
230
1
 70
8
 71
3
 72
11
 73
7
 74
0
 40
0.828519
 40
0.828519
 40
0.828519
 40
0.828519
 40
0.919194
 40
0.919194
 40
0.919194
 40
1
 40
1
 40
1
 40
1
 10
-19.4322
 20
-0.843637
 30
0
 10
-18.6429
 20
-1.28884
 30
0
 10
-17.9845
 20
-1.96121
 30
0
 10
-17.5559
 20
-2.75667
 30
0
 10
-17.172
 20
-3.46439
 30
0
 10
-16.9709
 20
-4.26706
 30
0
 10
-16.9719
 20
-5.064
 30
0
  0
SPLINE
  5
A0E
330
A02
100
AcDbEntity
  8
Shape2DView
100
AcDbSpline
210
0
220
0
230
1
 70
8
 71
3
 72
35
 73
31
 74
0
 40
0
 40
0
 40
0
 40
0
 40
0.0807428
 40
0.0807428
 40
0.0807428
 40
0.166954
 40
0.166954
 40
0.166954
 40
0.237682
 40
0.237682
 40
0.237682
 40
0.332899
 40
0.332899
 40
0.332899
 40
0.427297
 40
0.427297
 40
0.427297
 40
0.496717
 40
0.496717
 40
0.496717
 40
0.566137
 40
0.566137
 40
0.566137
 40
0.594145
 40
0.594145
 40
0.594145
 40
0.63269
 40
0.63269
 40
0.63269
 40
0.660349
 40
0.660349
 40
0.660349
 40
0.660349
 10
-52.3615
 20
31.258
 30
0
 10
-52.3608
 20
30.8477
 30
0
 10
-52.4652
 20
30.4265
 30
0
 10
-52.6702
 20
30.0546
 30
0
 10
-52.8877
 20
29.6568
 30
0
 10
-53.2192
 20
29.3173
 30
0
 10
-53.6165
 20
29.0901
 30
0
 10
-53.9418
 20
28.9028
 30
0
 10
-54.3099
 20
28.7909
 30
0
 10
-54.682
 20
28.7645
 30
0
 10
-55.1832
 20
28.7271
 30
0
 10
-55.6888
 20
28.8483
 30
0
 10
-56.1077
 20
29.0908
 30
0
 10
-56.5304
 20
29.3319
 30
0
 10
-56.8942
 20
29.714
 30
0
 10
-57.1131
 20
30.1716
 30
0
 10
-57.2756
 20
30.5075
 30
0
 10
-57.3619
 20
30.8825
 30
0
 10
-57.3615
 20
31.258
 30
0
 10
-57.3619
 20
31.6335
 30
0
 10
-57.2756
 20
32.0085
 30
0
 10
-57.1131
 20
32.3444
 30
0
 10
-57.0475
 20
32.4803
 30
0
 10
-56.9705
 20
32.6088
 30
0
 10
-56.8822
 20
32.73
 30
0
 10
-56.7601
 20
32.8971
 30
0
 10
-56.6208
 20
33.046
 30
0
 10
-56.4642
 20
33.1767
 30
0
 10
-56.351
 20
33.2707
 30
0
 10
-56.2338
 20
33.3526
 30
0
 10
-56.1127
 20
33.4224
 30
0
  0
SPLINE
  5
A0F
330
A02
100
AcDbEntity
  8
Shape2DView
100
AcDbSpline
210
0
220
0
230
1
 70
8
 71
3
 72
17
 73
13
 74
0
 40
0.660441
 40
0.660441
 40
0.660441
 40
0.660441
 40
0.75777
 40
0.75777
 40
0.75777
 40
0.829851
 40
0.829851
 40
0.829851
 40
0.917712
 40
0.917712
 40
0.917712
 40
1
 40
1
 40
1
 40
1
 10
-56.1115
 20
33.4231
 30
0
 10
-55.6918
 20
33.667
 30
0
 10
-55.1847
 20
33.789
 30
0
 10
-54.682
 20
33.7515
 30
0
 10
-54.3099
 20
33.7251
 30
0
 10
-53.9418
 20
33.6132
 30
0
 10
-53.6165
 20
33.4259
 30
0
 10
-53.2192
 20
33.1987
 30
0
 10
-52.8877
 20
32.8592
 30
0
 10
-52.6702
 20
32.4614
 30
0
 10
-52.4652
 20
32.0895
 30
0
 10
-52.3608
 20
31.6683
 30
0
 10
-52.3615
 20
31.258
 30
0
  0
LINE
  5
A10
330
A02
100
AcDbEntity
  8
Shape2DView
100
AcDbLine
 10
78.9
 20
-38
 30
0
 11
-78.9
 21
-38
 31
0
  0
SPLINE
  5
A11
330
A02
100
AcDbEntity
  8
Shape2DView
100
AcDbSpline
210
0
220
0
230
1
 70
9
 71
3
 72
41
 73
37
 74
0
 40
0
 40
0
 40
0
 40
0
 40
0.523599
 40
0.523599
 40
0.523599
 40
1.0472
 40
1.0472
 40
1.0472
 40
1.5708
 40
1.5708
 40
1.5708
 40
2.0944
 40
2.0944
 40
2.0944
 40
2.61799
 40
2.61799
 40
2.61799
 40
3.14159
 40
3.14159
 40
3.14159
 40
3.66519
 40
3.66519
 40
3.66519
 40
4.18879
 40
4.18879
 40
4.18879
 40
4.71239
 40
4.71239
 40
4.71239
 40
5.23599
 40
5.23599
 40
5.23599
 40
5.75959
 40
5.75959
 40
5.75959
 40
6.28319
 40
6.28319
 40
6.28319
 40
6.28319
 10
26.76
 20
-5.064
 30
0
 10
26.7614
 20
-4.36654
 30
0
 10
26.6042
 20
-3.56697
 30
0
 10
26.2004
 20
-2.80234
 30
0
 10
25.8028
 20
-2.03917
 30
0
 10
25.1474
 20
-1.32852
 30
0
 10
24.335
 20
-0.863774
 30
0
 10
23.5263
 20
-0.392613
 30
0
 10
22.5832
 20
-0.180288
 30
0
 10
21.7235
 20
-0.217586
 30
0
 10
20.8594
 20
-0.250189
 30
0
 10
20.0883
 20
-0.513815
 30
0
 10
19.485
 20
-0.863774
 30
0
 10
18.8803
 20
-1.21127
 30
0
 10
18.2664
 20
-1.74722
 30
0
 10
17.8062
 20
-2.47925
 30
0
 10
17.344
 20
-3.20512
 30
0
 10
17.0563
 20
-4.1281
 30
0
 10
17.06
 20
-5.064
 30
0
 10
17.0563
 20
-5.9999
 30
0
 10
17.344
 20
-6.92288
 30
0
 10
17.8062
 20
-7.64875
 30
0
 10
18.2664
 20
-8.38078
 30
0
 10
18.8803
 20
-8.91673
 30
0
 10
19.485
 20
-9.26423
 30
0
 10
20.0883
 20
-9.61419
 30
0
 10
20.8594
 20
-9.87781
 30
0
 10
21.7235
 20
-9.91041
 30
0
 10
22.5832
 20
-9.94771
 30
0
 10
23.5263
 20
-9.73539
 30
0
 10
24.335
 20
-9.26423
 30
0
 10
25.1474
 20
-8.79948
 30
0
 10
25.8028
 20
-8.08883
 30
0
 10
26.2004
 20
-7.32566
 30
0
 10
26.6042
 20
-6.56103
 30
0
 10
26.7614
 20
-5.76146
 30
0
 10
26.76
 20
-5.064
 30
0
  0
SPLINE
  5
A12
330
A02
100
AcDbEntity
  8
Shape2DView
100
AcDbSpline
210
0
220
0
230
1
 70
9
 71
3
 72
41
 73
37
 74
0
 40
0
 40
0
 40
0
 40
0
 40
0.523599
 40
0.523599
 40
0.523599
 40
1.0472
 40
1.0472
 40
1.0472
 40
1.5708
 40
1.5708
 40
1.5708
 40
2.0944
 40
2.0944
 40
2.0944
 40
2.61799
 40
2.61799
 40
2.61799
 40
3.14159
 40
3.14159
 40
3.14159
 40
3.66519
 40
3.66519
 40
3.66519
 40
4.18879
 40
4.18879
 40
4.18879
 40
4.71239
 40
4.71239
 40
4.71239
 40
5.23599
 40
5.23599
 40
5.23599
 40
5.75959
 40
5.75959
 40
5.75959
 40
6.28319
 40
6.28319
 40
6.28319
 40
6.28319
 10
4.8939
 20
-5.064
 30
0
 10
4.89532
 20
-4.36654
 30
0
 10
4.7381
 20
-3.56697
 30
0
 10
4.33429
 20
-2.80234
 30
0
 10
3.93674
 20
-2.03917
 30
0
 10
3.28127
 20
-1.32852
 30
0
 10
2.4689
 20
-0.863774
 30
0
 10
1.66024
 20
-0.392613
 30
0
 10
0.71706
 20
-0.180288
 30
0
 10
-0.142637
 20
-0.217586
 30
0
 10
-1.00673
 20
-0.250189
 30
0
 10
-1.77779
 20
-0.513815
 30
0
 10
-2.3811
 20
-0.863774
 30
0
 10
-2.98583
 20
-1.21127
 30
0
 10
-3.59967
 20
-1.74722
 30
0
 10
-4.05995
 20
-2.47925
 30
0
 10
-4.5221
 20
-3.20512
 30
0
 10
-4.80981
 20
-4.1281
 30
0
 10
-4.8061
 20
-5.064
 30
0
 10
-4.80981
 20
-5.9999
 30
0
 10
-4.5221
 20
-6.92288
 30
0
 10
-4.05995
 20
-7.64875
 30
0
 10
-3.59967
 20
-8.38078
 30
0
 10
-2.98583
 20
-8.91673
 30
0
 10
-2.3811
 20
-9.26423
 30
0
 10
-1.77779
 20
-9.61419
 30
0
 10
-1.00673
 20
-9.87781
 30
0
 10
-0.142637
 20
-9.91041
 30
0
 10
0.71706
 20
-9.94771
 30
0
 10
1.66024
 20
-9.73539
 30
0
 10
2.4689
 20
-9.26423
 30
0
 10
3.28127
 20
-8.79948
 30
0
 10
3.93674
 20
-8.08883
 30
0
 10
4.33429
 20
-7.32566
 30
0
 10
4.7381
 20
-6.56103
 30
0
 10
4.89532
 20
-5.76146
 30
0
 10
4.8939
 20
-5.064
 30
0
  0
SPLINE
  5
A13
330
A02
100
AcDbEntity
  8
Shape2DView
100
AcDbSpline
210
0
220
0
230
1
 70
9
 71
3
 72
41
 73
37
 74
0
 40
0
 40
0
 40
0
 40
0
 40
0.523599
 40
0.523599
 40
0.523599
 40
1.0472
 40
1.0472
 40
1.0472
 40
1.5708
 40
1.5708
 40
1.5708
 40
2.0944
 40
2.0944
 40
2.0944
 40
2.61799
 40
2.61799
 40
2.61799
 40
3.14159
 40
3.14159
 40
3.14159
 40
3.66519
 40
3.66519
 40
3.66519
 40
4.18879
 40
4.18879
 40
4.18879
 40
4.71239
 40
4.71239
 40
4.71239
 40
5.23599
 40
5.23599
 40
5.23599
 40
5.75959
 40
5.75959
 40
5.75959
 40
6.28319
 40
6.28319
 40
6.28319
 40
6.28319
 10
-16.9719
 20
-5.064
 30
0
 10
-16.9705
 20
-4.36654
 30
0
 10
-17.1277
 20
-3.56697
 30
0
 10
-17.5316
 20
-2.80234
 30
0
 10
-17.9291
 20
-2.03917
 30
0
 10
-18.5846
 20
-1.32852
 30
0
 10
-19.3969
 20
-0.863774
 30
0
 10
-20.2056
 20
-0.392613
 30
0
 10
-21.1488
 20
-0.180288
 30
0
 10
-22.0085
 20
-0.217586
 30
0
 10
-22.8726
 20
-0.250189
 30
0
 10
-23.6436
 20
-0.513815
 30
0
 10
-24.2469
 20
-0.863774
 30
0
 10
-24.8517
 20
-1.21127
 30
0
 10
-25.4655
 20
-1.74722
 30
0
 10
-25.9258
 20
-2.47925
 30
0
 10
-26.3879
 20
-3.20512
 30
0
 10
-26.6757
 20
-4.1281
 30
0
 10
-26.6719
 20
-5.064
 30
0
 10
-26.6757
 20
-5.9999
 30
0
 10
-26.3879
 20
-6.92288
 30
0
 10
-25.9258
 20
-7.64875
 30
0
 10
-25.4655
 20
-8.38078
 30
0
 10
-24.8517
 20
-8.91673
 30
0
 10
-24.2469
 20
-9.26423
 30
0
 10
-23.6436
 20
-9.61419
 30
0
 10
-22.8726
 20
-9.87781
 30
0
 10
-22.0085
 20
-9.91041
 30
0
 10
-21.1488
 20
-9.94771
 30
0
 10
-20.2056
 20
-9.73539
 30
0
 10
-19.3969
 20
-9.26423
 30
0
 10
-18.5846
 20
-8.79948
 30
0
 10
-17.9291
 20
-8.08883
 30
0
 10
-17.5316
 20
-7.32566
 30
0
 10
-17.1277
 20
-6.56103
 30
0
 10
-16.9705
 20
-5.76146
 30
0
 10
-16.9719
 20
-5.064
 30
0
  0
SPLINE
  5
A14
330
A02
100
AcDbEntity
  8
Shape2DView
100
AcDbSpline
210
0
220
0
230
1
 70
8
 71
1
 72
4
 73
2
 74
0
 40
0
 40
0
 40
426
 40
426
 10
-48.4861
 20
50.0515
 30
0
 10
-47.4041
 20
50.0515
 30
0
  0
SPLINE
  5
A15
330
A02
100
AcDbEntity
  8
Shape2DView
100
AcDbSpline
210
0
220
0
230
1
 70
8
 71
1
 72
4
 73
2
 74
0
 40
0
 40
0
 40
14819
 40
14819
 10
-48.4861
 20
50.0515
 30
0
 10
-48.4861
 20
12.4112
 30
0
  0
SPLINE
  5
A16
330
A02
100
AcDbEntity
  8
Shape2DView
100
AcDbSpline
210
0
220
0
230
1
 70
8
 71
1
 72
4
 73
2
 74
0
 40
0
 40
0
 40
425
 40
425
 10
-47.4041
 20
50.0515
 30
0
 10
-47.4041
 20
51.131
 30
0
  0
SPLINE
  5
A17
330
A02
100
AcDbEntity
  8
Shape2DView
100
AcDbSpline
210
0
220
0
230
1
 70
8
 71
1
 72
4
 73
2
 74
0
 40
0
 40
0
 40
425
 40
425
 10
-47.4066
 20
12.4112
 30
0
 10
-48.4861
 20
12.4112
 30
0
  0
SPLINE
  5
A18
330
A02
100
AcDbEntity
  8
Shape2DView
100
AcDbSpline
210
0
220
0
230
1
 70
8
 71
1
 72
4
 73
2
 74
0
 40
0
 40
0
 40
37379
 40
37379
 10
-47.4041
 20
51.131
 30
0
 10
47.5386
 20
51.131
 30
0
  0
SPLINE
  5
A19
330
A02
100
AcDbEntity
  8
Shape2DView
100
AcDbSpline
210
0
220
0
230
1
 70
8
 71
1
 72
4
 73
2
 74
0
 40
0
 40
0
 40
425
 40
425
 10
-47.4066
 20
11.3317
 30
0
 10
-47.4066
 20
12.4112
 30
0
  0
SPLINE
  5
A1A
330
A02
100
AcDbEntity
  8
Shape2DView
100
AcDbSpline
210
0
220
0
230
1
 70
8
 71
1
 72
4
 73
2
 74
0
 40
0
 40
0
 40
425
 40
425
 10
47.5386
 20
51.131
 30
0
 10
47.5386
 20
50.0515
 30
0
  0
SPLINE
  5
A1B
330
A02
100
AcDbEntity
  8
Shape2DView
100
AcDbSpline
210
0
220
0
230
1
 70
8
 71
1
 72
4
 73
2
 74
0
 40
0
 40
0
 40
37381
 40
37381
 10
-47.4066
 20
11.3317
 30
0
 10
47.5411
 20
11.3317
 30
0
  0
SPLINE
  5
A1C
330
A02
100
AcDbEntity
  8
Shape2DView
100
AcDbSpline
210
0
220
0
230
1
 70
8
 71
1
 72
4
 73
2
 74
0
 40
0
 40
0
 40
424
 40
424
 10
47.5386
 20
50.0515
 30
0
 10
48.6156
 20
50.0515
 30
0
  0
SPLINE
  5
A1D
330
A02
100
AcDbEntity
  8
Shape2DView
100
AcDbSpline
210
0
220
0
230
1
 70
8
 71
1
 72
4
 73
2
 74
0
 40
0
 40
0
 40
425
 40
425
 10
47.5411
 20
12.4112
 30
0
 10
47.5411
 20
11.3317
 30
0
  0
SPLINE
  5
A1E
330
A02
100
AcDbEntity
  8
Shape2DView
100
AcDbSpline
210
0
220
0
230
1
 70
8
 71
1
 72
4
 73
2
 74
0
 40
0
 40
0
 40
14819
 40
14819
 10
48.6156
 20
12.4112
 30
0
 10
48.6156
 20
50.0515
 30
0
  0
SPLINE
  5
A1F
330
A02
100
AcDbEntity
  8
Shape2DView
100
AcDbSpline
210
0
220
0
230
1
 70
8
 71
1
 72
4
 73
2
 74
0
 40
0
 40
0
 40
423
 40
423
 10
48.6156
 20
12.4112
 30
0
 10
47.5411
 20
12.4112
 30
0
  0
SPLINE
  5
A20
330
A02
100
AcDbEntity
  8
Shape2DView
100
AcDbSpline
210
0
220
0
230
1
 70
9
 71
3
 72
41
 73
37
 74
0
 40
0
 40
0
 40
0
 40
0
 40
0.523599
 40
0.523599
 40
0.523599
 40
1.0472
 40
1.0472
 40
1.0472
 40
1.5708
 40
1.5708
 40
1.5708
 40
2.0944
 40
2.0944
 40
2.0944
 40
2.61799
 40
2.61799
 40
2.61799
 40
3.14159
 40
3.14159
 40
3.14159
 40
3.66519
 40
3.66519
 40
3.66519
 40
4.18879
 40
4.18879
 40
4.18879
 40
4.71239
 40
4.71239
 40
4.71239
 40
5.23599
 40
5.23599
 40
5.23599
 40
5.75959
 40
5.75959
 40
5.75959
 40
6.28319
 40
6.28319
 40
6.28319
 40
6.28319
 10
-52.3615
 20
31.258
 30
0
 10
-52.3608
 20
31.6175
 30
0
 10
-52.4418
 20
32.0297
 30
0
 10
-52.65
 20
32.4238
 30
0
 10
-52.8549
 20
32.8172
 30
0
 10
-53.1928
 20
33.1835
 30
0
 10
-53.6115
 20
33.4231
 30
0
 10
-54.0283
 20
33.6659
 30
0
 10
-54.5145
 20
33.7754
 30
0
 10
-54.9577
 20
33.7562
 30
0
 10
-55.4031
 20
33.7393
 30
0
 10
-55.8005
 20
33.6035
 30
0
 10
-56.1115
 20
33.4231
 30
0
 10
-56.4232
 20
33.2439
 30
0
 10
-56.7396
 20
32.9677
 30
0
 10
-56.9769
 20
32.5903
 30
0
 10
-57.2151
 20
32.2162
 30
0
 10
-57.3634
 20
31.7404
 30
0
 10
-57.3615
 20
31.258
 30
0
 10
-57.3634
 20
30.7756
 30
0
 10
-57.2151
 20
30.2998
 30
0
 10
-56.9769
 20
29.9257
 30
0
 10
-56.7396
 20
29.5483
 30
0
 10
-56.4232
 20
29.2721
 30
0
 10
-56.1115
 20
29.0929
 30
0
 10
-55.8005
 20
28.9125
 30
0
 10
-55.4031
 20
28.7767
 30
0
 10
-54.9577
 20
28.7598
 30
0
 10
-54.5145
 20
28.7406
 30
0
 10
-54.0283
 20
28.8501
 30
0
 10
-53.6115
 20
29.0929
 30
0
 10
-53.1928
 20
29.3325
 30
0
 10
-52.8549
 20
29.6988
 30
0
 10
-52.65
 20
30.0922
 30
0
 10
-52.4418
 20
30.4863
 30
0
 10
-52.3608
 20
30.8985
 30
0
 10
-52.3615
 20
31.258
 30
0
  0
ENDSEC
  0
SECTION
  2
OBJECTS
  0
DICTIONARY
  5
F000
330
0
100
AcDbDictionary
  3
ACAD_GROUP
350
F001
  0
DICTIONARY
  5
F001
330
F000
100
AcDbDictionary
  0
ENDSEC
  0
EOF